<?xml version="1.0" encoding="UTF-8" standalone="no"?>
<!-- Created with Inkscape (http://www.inkscape.org/) -->

<svg
   width="361.42084mm"
   height="103.71667mm"
   viewBox="0 0 361.42084 103.71667"
   version="1.1"
   id="svg1"
   xml:space="preserve"
   inkscape:version="1.4 (e7c3feb100, 2024-10-09)"
   sodipodi:docname="corelai-name.svg"
   xmlns:inkscape="http://www.inkscape.org/namespaces/inkscape"
   xmlns:sodipodi="http://sodipodi.sourceforge.net/DTD/sodipodi-0.dtd"
   xmlns="http://www.w3.org/2000/svg"
   xmlns:svg="http://www.w3.org/2000/svg"><sodipodi:namedview
     id="namedview1"
     pagecolor="#ffffff"
     bordercolor="#000000"
     borderopacity="0.25"
     inkscape:showpageshadow="2"
     inkscape:pageopacity="0.0"
     inkscape:pagecheckerboard="0"
     inkscape:deskcolor="#d1d1d1"
     inkscape:document-units="mm"
     inkscape:zoom="1.4253648"
     inkscape:cx="423.04961"
     inkscape:cy="195.0378"
     inkscape:window-width="1920"
     inkscape:window-height="1011"
     inkscape:window-x="0"
     inkscape:window-y="0"
     inkscape:window-maximized="1"
     inkscape:current-layer="layer1" /><defs
     id="defs1" /><g
     inkscape:label="Layer 1"
     inkscape:groupmode="layer"
     id="layer1"
     transform="translate(63.500004,-11.377083)"><path
       style="fill:#000000"
       d="M -63.500004,63.235416 V 11.377083 H 117.21041 297.92083 V 63.235416 115.09375 H 117.21041 -63.500004 Z M 109.5375,99.615625 c 0,-0.811389 -0.0819,-0.926042 -0.66146,-0.926042 -0.57956,0 -0.66146,0.114653 -0.66146,0.926042 0,0.811385 0.0819,0.926045 0.66146,0.926045 0.57956,0 0.66146,-0.11466 0.66146,-0.926045 z m 42.90261,-0.716104 c 1.37076,-0.576137 2.49034,-1.606562 2.2203,-2.043491 -0.11385,-0.184212 -0.4801,-0.05349 -1.03415,0.369102 -1.35891,1.036491 -2.66851,1.4649 -4.45891,1.45864 -5.48524,-0.01918 -7.56749,-5.29692 -3.01425,-7.640035 2.22788,-1.146471 6.26119,-0.688353 7.53607,0.855972 0.42325,0.512713 1.18691,0.593854 1.02721,0.109145 -0.24225,-0.73525 -2.34954,-2.019888 -3.81111,-2.323308 -2.71964,-0.564595 -4.90202,0.01791 -6.76937,1.806815 -2.92449,2.801636 -1.20775,6.9047 3.2767,7.831455 1.9656,0.40621 3.3244,0.291534 5.02751,-0.424295 z M 119.59166,94.83751 V 90.4875 h 2.91042 c 2.41065,0 2.91042,-0.06815 2.91042,-0.396875 0,-0.341519 -0.86725,-0.396875 -6.21771,-0.396875 -5.35046,0 -6.21771,0.05536 -6.21771,0.396875 0,0.328725 0.49977,0.396875 2.91042,0.396875 h 2.91041 v 4.321528 c 0,2.37684 0.0761,4.397666 0.1692,4.490723 0.4856,0.485602 0.62455,-0.507168 0.62455,-4.462241 z m 20.50521,4.116657 c 0,-0.338428 -0.84749,-0.407377 -5.75468,-0.468181 l -5.75469,-0.07131 v -1.714632 -1.714631 h 5.82083 c 4.99769,0 5.82084,-0.05612 5.82084,-0.396875 0,-0.340752 -0.82315,-0.396875 -5.82084,-0.396875 H 128.5875 V 92.339583 90.4875 h 5.82083 c 4.99769,0 5.82084,-0.05612 5.82084,-0.396875 0,-0.341754 -0.88195,-0.396875 -6.35,-0.396875 h -6.35 v 4.718403 c 0,2.595121 0.0815,4.799918 0.18114,4.899548 0.0996,0.09963 2.92736,0.149239 6.28385,0.110243 5.21673,-0.06061 6.10271,-0.12852 6.10271,-0.467777 z m 18.12396,-1.5875 V 95.25 h 5.42396 5.42396 v 2.116667 c 0,1.705092 0.0772,2.116666 0.39687,2.116666 0.33808,0 0.39688,-0.705555 0.39688,-4.7625 0,-4.056944 -0.0588,-4.7625 -0.39688,-4.7625 -0.3197,0 -0.39687,0.411574 -0.39687,2.116667 v 2.116667 h -5.42396 -5.42396 V 92.075 c 0,-1.705093 -0.0772,-2.116667 -0.39687,-2.116667 -0.33808,0 -0.39688,0.705556 -0.39688,4.7625 0,4.056945 0.0588,4.7625 0.39688,4.7625 0.3197,0 0.39687,-0.411574 0.39687,-2.116666 z M 20.637497,82.937566 c 0,-0.07788 -0.189276,-0.430473 -0.420614,-0.783539 -0.251114,-0.383248 -0.507671,-1.632313 -0.636645,-3.099545 -0.237996,-2.707478 -0.487788,-3.564764 -1.227481,-4.212718 -0.6091,-0.533557 -2.7541,-1.628618 -2.901467,-1.481251 -0.05931,0.05931 0.0057,0.454574 0.144473,0.878353 0.138775,0.42378 0.37273,1.809116 0.5199,3.078525 0.290832,2.508564 0.694425,3.526233 1.812271,4.569681 0.777538,0.72579 2.709563,1.474833 2.709563,1.050494 z m 6.641247,-0.158465 c 2.138134,-0.713361 3.159658,-2.523868 3.53938,-6.273046 0.09349,-0.923077 0.285208,-1.981386 0.426039,-2.351799 0.140831,-0.370413 0.206277,-0.723257 0.145437,-0.784098 -0.202468,-0.202468 -2.474874,0.995622 -3.008963,1.586428 -0.738112,0.816495 -1.126612,2.132628 -1.14017,3.862583 -0.01028,1.31182 -0.212904,2.160063 -0.907001,3.796977 -0.232039,0.547226 -0.215192,0.550131 0.945278,0.162955 z M 14.282387,78.278603 C 13.08034,77.269976 11.624456,76.965613 8.4096486,77.050861 l -2.8351401,0.07518 0.608204,0.611322 c 1.0454311,1.05079 2.3967511,1.351885 5.8070835,1.293909 l 3.126258,-0.05315 z m 24.639504,0.421617 c 0.670322,-0.22046 1.465503,-0.664838 1.767067,-0.987507 l 0.548299,-0.586672 -2.937065,-0.07229 c -3.249727,-0.07999 -5.007983,0.314392 -5.963877,1.337703 l -0.548021,0.586671 2.957414,0.06146 c 2.074245,0.04311 3.321374,-0.05824 4.176183,-0.33937 z M -6.3593122,78.334061 c 0.3978883,-0.743462 0.3524396,-5.896551 -0.056837,-6.44429 -0.3015702,-0.403594 -1.7070335,-0.448875 -15.9411458,-0.51359 -15.289003,-0.06951 -15.634932,-0.08254 -16.801042,-0.632989 -1.567373,-0.739855 -2.847108,-2.041543 -3.609399,-3.671317 -0.58699,-1.254983 -0.618765,-1.608239 -0.618765,-6.879167 0,-5.295055 0.02945,-5.618439 0.626473,-6.879167 0.773929,-1.634298 2.003922,-2.828216 3.733983,-3.624467 l 1.322916,-0.608866 15.467757,-0.08004 c 10.483821,-0.05425 15.5776622,-0.171254 15.8088537,-0.363126 0.5370757,-0.445733 0.4735083,-6.133501 -0.074675,-6.681685 -0.368474,-0.368474 -2.151893,-0.415251 -15.6765627,-0.41118 -16.785965,0.0051 -17.235136,0.04004 -20.564841,1.602043 -2.498144,1.171904 -5.475997,4.151748 -6.698393,6.702871 -1.441451,3.008288 -1.685435,4.777678 -1.553991,11.269659 0.09893,4.886153 0.194896,5.933816 0.680339,7.427417 1.112217,3.422042 3.920298,6.823639 6.985771,8.462281 3.418219,1.827203 3.080373,1.797614 20.763829,1.818536 15.4906904,0.01833 15.9394217,0.0047 16.2057298,-0.492923 z m 70.0709762,0.194272 c 0.231149,-0.231148 0.3175,-2.246018 0.3175,-7.408333 v -7.090834 l 10.120313,0.0058 c 9.312066,0.0053 10.207288,0.04531 11.209361,0.500368 1.422715,0.646081 1.843152,1.240663 5.535427,7.828196 1.712835,3.055938 3.292971,5.76461 3.511413,6.019271 0.341053,0.397603 0.891452,0.463021 3.895639,0.463021 3.725643,0 4.311913,-0.190466 4.020173,-1.306064 -0.0741,-0.283323 -1.80714,-3.469614 -3.851231,-7.080646 -2.044088,-3.611032 -3.788402,-6.752825 -3.876254,-6.981764 -0.115365,-0.300637 0.136324,-0.549752 0.906174,-0.896906 0.586248,-0.264361 1.707389,-1.153186 2.491425,-1.975166 C 101.63618,56.784329 102.3138,51.87864 99.827891,47.311215 98.998527,45.7874 96.83133,43.669235 95.3048,42.890458 92.699712,41.561441 92.358436,41.539583 74.212951,41.539583 c -12.836093,0 -17.034281,0.07716 -17.27462,0.3175 -0.33349,0.33349 -0.463746,5.872694 -0.156901,6.672319 0.144025,0.375323 1.857439,0.419166 16.602604,0.424826 9.084113,0.0035 16.915616,0.115632 17.500339,0.250599 0.67016,0.154687 1.373724,0.587642 1.918229,1.180427 0.747575,0.813861 0.859896,1.122071 0.859896,2.359554 0,1.042843 -0.147726,1.611216 -0.552528,2.125838 -1.206187,1.533418 -0.602194,1.485604 -18.766311,1.485604 -11.005263,0 -16.873784,0.09339 -17.211056,0.273892 -0.492966,0.263828 -0.511772,0.665377 -0.511772,10.927292 0,7.933199 0.08107,10.734468 0.3175,10.970899 0.21045,0.21045 1.352315,0.3175 3.386667,0.3175 2.034351,0 3.176216,-0.10705 3.386666,-0.3175 z m 91.016666,0 c 0.21223,-0.212225 0.3175,-1.387182 0.3175,-3.543567 0,-2.697676 -0.0685,-3.252372 -0.41851,-3.386667 -0.23019,-0.08833 -8.62409,-0.160599 -18.65313,-0.160599 h -18.23461 v -3.704167 -3.704167 h 14.53319 c 12.8592,0 14.58107,-0.04789 14.94895,-0.415773 0.61978,-0.619778 0.60195,-6.08372 -0.0221,-6.773289 -0.41595,-0.459616 -1.32954,-0.483854 -18.23735,-0.483854 -15.82856,0 -17.84551,0.04604 -18.21525,0.415774 -0.36402,0.364022 -0.41577,1.724144 -0.41577,10.927291 0,7.822848 0.0812,10.592729 0.3175,10.829018 0.45992,0.459918 43.61966,0.459918 44.07958,0 z m 48.15417,0 c 0.46291,-0.462913 0.43704,-6.397662 -0.0296,-6.784921 -0.23814,-0.197637 -4.7911,-0.311614 -14.50556,-0.363126 l -14.15848,-0.07508 -1.07227,-0.709793 c -0.58975,-0.390386 -1.35483,-1.164292 -1.70017,-1.719792 l -0.6279,-1.009998 -0.0759,-12.816937 c -0.0517,-8.722924 -0.16765,-12.927485 -0.36313,-13.163021 -0.42363,-0.510452 -6.38976,-0.488111 -6.81604,0.02552 -0.22819,0.274956 -0.28823,3.870581 -0.23084,13.824479 0.0774,13.419932 0.0791,13.456645 0.69925,14.993865 1.39181,3.45002 4.61038,6.474865 8.04877,7.564312 1.55466,0.492593 2.46829,0.523109 16.08133,0.537125 10.88976,0.01121 14.51096,-0.06308 14.75052,-0.302639 z m 20.33024,-14.76375 c 6.89262,-13.364809 7.80386,-14.999125 8.59896,-15.422359 1.06498,-0.566894 2.19277,-0.422891 3.05863,0.390542 0.33397,0.313752 3.9582,7.068718 8.05385,15.011034 4.09564,7.942316 7.5634,14.589403 7.70612,14.771304 0.18417,0.234723 1.27159,0.330729 3.74605,0.330729 3.52906,0 4.12157,-0.148174 4.12157,-1.030716 0,-0.358912 -11.9992,-23.798132 -15.57887,-30.431741 -1.76344,-3.267896 -3.24099,-4.842607 -5.58704,-5.954439 -1.54636,-0.732844 -1.97502,-0.815396 -4.23409,-0.815396 -2.17525,0 -2.71779,0.09572 -4.03105,0.711206 -2.00049,0.937561 -3.24501,1.911603 -4.18145,3.272682 -1.10371,1.604184 -17.1875,32.646932 -17.1875,33.172974 0,0.963651 0.53359,1.091947 4.22718,1.01636 l 3.57802,-0.07322 z m 50.03753,-3.277971 c 0.0494,-13.244213 -0.0137,-18.325356 -0.23083,-18.586979 -0.46042,-0.554768 -6.13413,-0.507561 -6.69742,0.05572 -0.3697,0.369701 -0.41577,2.379968 -0.41577,18.141352 0,11.884179 0.0916,17.896804 0.27807,18.245156 0.25736,0.480884 0.52828,0.51407 3.63802,0.445627 l 3.35995,-0.07395 z M 14.662398,75.644149 c -0.550592,-2.17746 -1.207524,-3.232185 -2.617279,-4.202122 -1.454596,-1.000788 -2.5071882,-2.254962 -2.6994895,-3.216469 -0.1947522,-0.973761 -0.5261389,-0.967149 -0.7418114,0.0148 -0.443905,2.021086 1.1829002,4.80666 3.7789499,6.470686 1.221636,0.783049 1.928163,1.435933 2.160245,1.99623 0.535657,1.29319 0.590873,0.801493 0.119385,-1.063127 z m 18.966567,-0.422298 c 2.392328,-1.546558 2.891415,-1.983782 3.55289,-3.112504 0.84046,-1.434135 1.207472,-2.863218 1.00076,-3.896782 -0.191324,-0.956617 -0.504245,-0.950784 -0.697,0.01299 -0.192302,0.961507 -1.244893,2.215681 -2.69949,3.216469 -1.406892,0.967968 -2.066688,2.024601 -2.612644,4.18403 -0.537168,2.124672 -0.53119,2.223579 0.06642,1.098982 0.269448,-0.507053 0.894526,-1.183487 1.389062,-1.503188 z M 8.8098021,74.639778 C 8.9754364,74.474144 8.2916194,73.538487 6.8797289,71.998888 5.2174771,70.186283 4.2526655,69.383054 2.8562846,68.649277 1.8460152,68.118396 0.95815476,67.745314 0.88326151,67.820207 c -0.0748933,0.07489 0.43987469,1.184094 1.14392879,2.464891 1.3808116,2.511935 3.0945046,4.469283 4.0951793,4.677435 0.8452672,0.175825 2.3722381,-0.0076 2.6874325,-0.322755 z m 32.3513389,0.0012 c 0.667356,-0.303107 1.42999,-0.979954 2.005749,-1.780126 1.127892,-1.56751 2.943455,-4.878289 2.770176,-5.051568 -0.06889,-0.06889 -0.951837,0.309105 -1.962106,0.839986 -1.389827,0.730333 -2.360418,1.536161 -3.9882,3.311179 -1.18324,1.290267 -2.151346,2.41865 -2.151346,2.507518 0,0.226782 1.086121,0.637986 1.719792,0.651111 0.291041,0.006 1.013712,-0.209117 1.605935,-0.4781 z M 7.9273839,66.807291 C 7.931323,66.51625 7.8034882,65.806061 7.6433067,65.229095 7.3748635,64.262175 7.3240548,64.218375 6.9941784,64.669508 6.4314506,65.439084 6.2608209,67.317032 6.6182504,68.806965 l 0.3255275,1.356951 0.488222,-1.413729 c 0.2685221,-0.777551 0.4914449,-1.651854 0.495384,-1.942896 z m 32.5335301,0.468375 c 0.02327,-0.977847 -0.72647,-3.042161 -1.035512,-2.851162 -0.515263,0.31845 -0.564886,2.607517 -0.08965,4.135578 l 0.48404,1.55638 0.310396,-0.993127 c 0.170717,-0.54622 0.319545,-1.377671 0.330729,-1.847669 z M 6.0665516,63.632291 C 6.2155033,63.050208 6.3402133,61.750981 6.3436849,60.74512 6.348813,59.259328 6.2246046,58.702317 5.6815065,57.77559 4.8627636,56.378511 3.1993099,55.352004 1.4337828,55.154345 0.15542185,55.011228 0.14318053,55.016691 0.74507764,55.461736 c 0.80835086,0.597698 2.01337266,2.382527 2.39046226,3.540656 0.1658921,0.509493 0.4751357,2.325077 0.6872078,4.03463 0.2440503,1.967336 0.6016234,3.569696 0.9741382,4.365317 L 5.3854384,68.659375 5.5905844,66.675 c 0.1128303,-1.091406 0.3270155,-2.460625 0.4759672,-3.042709 z m 36.0091874,3.749984 c 0.278521,-0.629644 0.636459,-2.326285 0.795416,-3.770312 0.449023,-4.079088 1.109406,-6.006452 2.552466,-7.449513 l 1.210257,-1.210256 -1.290378,0.176361 c -1.696555,0.231876 -3.517936,1.383121 -4.259421,2.692264 -0.714375,1.26128 -0.794994,3.795005 -0.205957,6.472931 0.208058,0.945885 0.382469,2.285338 0.387581,2.976562 0.0051,0.691224 0.07552,1.256771 0.156464,1.256771 0.08094,0 0.37505,-0.515163 0.653572,-1.144808 z M 2.0355085,62.725252 c -0.4535401,-1.735799 -0.9184756,-3.097991 -1.03319,-3.027093 -0.11471437,0.0709 -0.20857159,1.143067 -0.20857159,2.3826 0,2.138149 0.039652,2.293348 0.77339749,3.027093 0.4253685,0.425369 0.8903041,0.773398 1.03319,0.773398 0.1428859,0 -0.1112857,-1.420199 -0.5648259,-3.155998 z m 43.2285915,2.3826 c 0.733745,-0.733745 0.773397,-0.888944 0.773397,-3.027093 0,-1.239533 -0.104813,-2.318474 -0.232919,-2.397648 -0.128105,-0.07917 -0.540409,1.083183 -0.916231,2.583014 -0.375822,1.499831 -0.759997,2.926802 -0.853722,3.171045 -0.268307,0.699198 0.372638,0.52752 1.229475,-0.329318 z M 6.6847249,55.886465 C 6.4055292,55.344482 5.6571295,54.067604 5.0216143,53.048958 3.13532,50.02548 2.9069227,48.039559 4.2383755,46.238672 c 0.3138949,-0.424565 0.5237734,-0.818881 0.4663967,-0.876258 -0.057377,-0.05738 -0.552538,0.01944 -1.1003585,0.170698 -1.2935566,0.357168 -2.96381297,1.878576 -3.35128528,3.052629 -0.70045221,2.122391 0.30857176,3.676446 4.27940798,6.590959 1.290645,0.947307 2.3560269,1.868131 2.3675154,2.046276 0.015557,0.241231 0.055524,0.237761 0.1565949,-0.01359 0.074639,-0.185621 -0.092726,-0.780934 -0.3719218,-1.322917 z M 41.945979,55.412303 c 4.983444,-3.307822 6.078092,-6.170014 3.31458,-8.66668 -0.89586,-0.809356 -2.84051,-1.676786 -3.123866,-1.39343 -0.05175,0.05175 0.209441,0.541392 0.580436,1.088083 1.291513,1.903151 0.776901,4.178178 -1.84827,8.170946 -0.487512,0.741484 -0.965605,1.70534 -1.062429,2.141903 -0.174991,0.789011 -0.173446,0.790242 0.258913,0.206258 0.239225,-0.32312 1.085511,-1.019307 1.880636,-1.54708 z M 6.9957854,50.898498 c -0.3023553,-2.41997 0.8849006,-4.502036 1.9562684,-3.430668 0.3482958,0.348296 0.3704251,0.564678 0.1244069,1.216454 -0.2484379,0.658187 -0.2328105,0.792799 0.092038,0.792799 1.6564793,0 2.4481503,-2.661873 1.1429663,-3.843048 -0.6534667,-0.59138 -2.4490077,-0.797579 -3.4249683,-0.393323 -0.4380221,0.181435 -1.0497297,0.739771 -1.3593504,1.240748 -0.7438456,1.203568 -0.5941668,3.071446 0.4279312,5.340254 0.6871709,1.525352 0.7795796,1.625564 0.9855483,1.068778 0.1250035,-0.337917 0.1498252,-1.234314 0.05516,-1.991994 z m 34.2687326,-0.07191 c 0.296805,-0.753 0.539646,-1.914473 0.539646,-2.581049 0,-1.055052 -0.132987,-1.344945 -1.027206,-2.239164 -0.841784,-0.841784 -1.211925,-1.026502 -2.050521,-1.023305 -1.329139,0.0051 -2.259153,0.491436 -2.700747,1.412412 -0.599589,1.250485 0.304893,3.081604 1.522158,3.081604 0.452482,0 0.474436,-0.08411 0.206936,-0.792799 -0.246019,-0.651776 -0.223889,-0.868158 0.124406,-1.216454 1.080412,-1.080411 2.198227,0.98217 1.901328,3.508312 -0.08914,0.758426 -0.08285,1.585403 0.01398,1.837726 0.161346,0.420461 0.20754,0.413805 0.553212,-0.07971 0.207441,-0.296163 0.620006,-1.154571 0.916811,-1.907572 z m 113.723542,-5.28105 c 0.0498,-2.185001 -0.0268,-3.392177 -0.23083,-3.63802 -0.25622,-0.308725 -3.80419,-0.367932 -22.04817,-0.367932 -16.5583,0 -21.81852,0.07571 -22.06031,0.3175 -0.43906,0.43906 -0.43775,6.335586 0.002,6.774842 0.24493,0.244933 5.42109,0.303299 22.29114,0.251354 l 21.97214,-0.06765 z M 9.2747382,43.885123 c 3.2147888,0.05831 4.5565848,-0.318783 5.9769658,-1.679748 1.255312,-1.2028 1.668998,-2.380512 0.564422,-1.606837 -0.445265,0.311876 -1.296444,0.412506 -3.50573,0.414463 -2.5125292,0.0022 -3.1050513,0.08983 -4.2669322,0.630837 -1.3467513,0.627093 -2.4872168,1.844339 -2.4872168,2.654667 0,0.39098 0.058787,0.389758 0.675048,-0.01403 0.5192803,-0.340245 1.2215569,-0.432395 3.0434432,-0.39935 z M 40.763131,43.151379 c -0.302542,-0.424882 -1.167955,-1.080414 -1.923138,-1.456738 -1.228406,-0.61214 -1.681943,-0.684225 -4.304949,-0.684225 -2.225367,0 -3.073591,-0.09925 -3.519925,-0.411878 -0.510021,-0.357232 -0.588038,-0.359925 -0.588038,-0.0203 0,0.629044 1.29899,1.995839 2.480678,2.610163 0.874273,0.454509 1.733041,0.596846 4.31988,0.716002 2.133947,0.0983 3.345048,0.266118 3.571875,0.494956 0.606174,0.611549 0.577079,-0.386452 -0.03638,-1.24798 z M 15.576517,39.65967 c 0.777451,-0.271021 1.356813,-0.915572 1.356813,-1.509479 0,-0.507841 -3.222262,0.405972 -3.931134,1.114845 l -0.687047,0.687047 h 1.211275 c 0.666202,0 1.588743,-0.131586 2.050093,-0.292413 z M 33.829049,39.265036 C 33.371238,38.807225 32.6008,38.465051 31.519958,38.2395 c -1.533761,-0.320066 -1.622044,-0.311261 -1.622044,0.161769 0,0.808739 1.513016,1.548695 3.168987,1.549825 l 1.449195,9.89e-4 z"
       id="path1"
       sodipodi:nodetypes="cccccccccssssssssssssssssscssssscscssscccssscccssscssssscccssssscccsssssssssssssssssssssssscsscssscsscssssssssssscssscsssssssssccssssssssssssssssssssssssssssscccssssssssssscssccsssssssssssssssssssssscssssssscssssssssssssssssssssssssssssssscssssscssssscssssssssssscssssscsssssssssssssssssssssssssssssssssssssssssssssssssscssssssssscssscsccssscsssssssssssssssssscsssssscs" /></g></svg>
