<?xml version="1.0" encoding="UTF-8" standalone="no"?>
<!-- Created with Inkscape (http://www.inkscape.org/) -->

<svg
   width="54.621914mm"
   height="62.584mm"
   viewBox="0 0 54.621913 62.58399"
   version="1.1"
   id="svg1"
   inkscape:version="1.4 (e7c3feb100, 2024-10-09)"
   sodipodi:docname="logo.svg"
   inkscape:export-filename="logo.png"
   inkscape:export-xdpi="300"
   inkscape:export-ydpi="300"
   xmlns:inkscape="http://www.inkscape.org/namespaces/inkscape"
   xmlns:sodipodi="http://sodipodi.sourceforge.net/DTD/sodipodi-0.dtd"
   xmlns="http://www.w3.org/2000/svg"
   xmlns:svg="http://www.w3.org/2000/svg">
  <sodipodi:namedview
     id="namedview1"
     pagecolor="#ffffff"
     bordercolor="#000000"
     borderopacity="0.25"
     inkscape:showpageshadow="2"
     inkscape:pageopacity="0.0"
     inkscape:pagecheckerboard="0"
     inkscape:deskcolor="#d1d1d1"
     inkscape:document-units="mm"
     inkscape:zoom="2.0157702"
     inkscape:cx="87.559585"
     inkscape:cy="146.84214"
     inkscape:window-width="1920"
     inkscape:window-height="1011"
     inkscape:window-x="0"
     inkscape:window-y="0"
     inkscape:window-maximized="1"
     inkscape:current-layer="layer1" />
  <defs
     id="defs1" />
  <g
     inkscape:label="Layer 1"
     inkscape:groupmode="layer"
     id="layer1"
     transform="translate(-1.6350874,-70.017644)">
    <path
       d="m 26.187882,123.71521 c 0,-0.0779 -0.189276,-0.43047 -0.420614,-0.78354 -0.251114,-0.38325 -0.507671,-1.63231 -0.636645,-3.09954 -0.237996,-2.70748 -0.487788,-3.56477 -1.227481,-4.21272 -0.6091,-0.53356 -2.7541,-1.62862 -2.901467,-1.48125 -0.05931,0.0593 0.0057,0.45457 0.144473,0.87835 0.138775,0.42378 0.37273,1.80912 0.5199,3.07853 0.290832,2.50856 0.694425,3.52623 1.812271,4.56968 0.777538,0.72579 2.709563,1.47483 2.709563,1.05049 z m 6.641247,-0.15847 c 2.138134,-0.71336 3.159658,-2.52386 3.53938,-6.27304 0.09349,-0.92308 0.285208,-1.98139 0.426039,-2.3518 0.140831,-0.37041 0.206277,-0.72326 0.145437,-0.7841 -0.202468,-0.20247 -2.474874,0.99562 -3.008963,1.58643 -0.738112,0.8165 -1.126612,2.13263 -1.14017,3.86258 -0.01028,1.31182 -0.212904,2.16007 -0.907001,3.79698 -0.232039,0.54723 -0.215192,0.55013 0.945278,0.16295 z m -12.996357,-4.50049 c -1.202047,-1.00863 -2.657931,-1.31299 -5.872738,-1.22775 l -2.83514,0.0752 0.608204,0.61132 c 1.045431,1.05079 2.396751,1.35188 5.807083,1.29391 l 3.126258,-0.0532 z m 24.639504,0.42161 c 0.670322,-0.22046 1.465503,-0.66483 1.767067,-0.9875 l 0.548299,-0.58667 -2.937065,-0.0723 c -3.249727,-0.08 -5.007983,0.31439 -5.963877,1.3377 l -0.548021,0.58667 2.957414,0.0615 c 2.074245,0.0431 3.321374,-0.0582 4.176183,-0.33937 z m -24.259493,-3.05607 c -0.550592,-2.17746 -1.207524,-3.23218 -2.617279,-4.20212 -1.454596,-1.00079 -2.507188,-2.25496 -2.69949,-3.21647 -0.194752,-0.97376 -0.526138,-0.96714 -0.741811,0.0148 -0.443904,2.02109 1.1829,4.80666 3.77895,6.47069 1.221636,0.78305 1.928163,1.43593 2.160245,1.99623 0.535657,1.29319 0.590873,0.80149 0.119385,-1.06313 z M 39.17935,115.9995 c 2.392328,-1.54656 2.891415,-1.98379 3.55289,-3.11251 0.84046,-1.43413 1.207472,-2.86322 1.00076,-3.89678 -0.191324,-0.95662 -0.504245,-0.95078 -0.697,0.013 -0.192302,0.96151 -1.244893,2.21568 -2.69949,3.21647 -1.406892,0.96797 -2.066688,2.0246 -2.612644,4.18403 -0.537168,2.12467 -0.53119,2.22358 0.06642,1.09898 0.269448,-0.50705 0.894526,-1.18349 1.389062,-1.50319 z m -24.819163,-0.58208 c 0.165634,-0.16563 -0.518182,-1.10129 -1.930073,-2.64089 -1.662251,-1.8126 -2.6270628,-2.61583 -4.0234438,-3.34961 -1.010269,-0.53088 -1.89813,-0.90396 -1.973023,-0.82907 -0.07489,0.0749 0.439875,1.18409 1.143929,2.46489 1.380811,2.51194 3.0945038,4.46928 4.0951788,4.67744 0.845267,0.17582 2.372238,-0.008 2.687432,-0.32276 z m 32.351339,10e-4 c 0.667356,-0.3031 1.42999,-0.97995 2.005749,-1.78012 1.127892,-1.56751 2.943455,-4.87829 2.770176,-5.05157 -0.06889,-0.0689 -0.951837,0.3091 -1.962106,0.83998 -1.389827,0.73034 -2.360418,1.53617 -3.9882,3.31118 -1.18324,1.29027 -2.151346,2.41865 -2.151346,2.50752 0,0.22678 1.086121,0.63799 1.719792,0.65111 0.291041,0.006 1.013712,-0.20912 1.605935,-0.4781 z m -33.233757,-7.83348 c 0.0039,-0.29104 -0.123895,-1.00123 -0.284077,-1.5782 -0.268443,-0.96692 -0.319252,-1.01072 -0.649128,-0.55959 -0.562728,0.76958 -0.733358,2.64753 -0.375928,4.13746 l 0.325527,1.35695 0.488222,-1.41373 c 0.268522,-0.77755 0.491445,-1.65185 0.495384,-1.94289 z m 32.53353,0.46837 c 0.02327,-0.97784 -0.72647,-3.04216 -1.035512,-2.85116 -0.515263,0.31845 -0.564886,2.60752 -0.08965,4.13558 l 0.48404,1.55638 0.310396,-0.99313 c 0.170717,-0.54622 0.319545,-1.37767 0.330729,-1.84767 z m -34.394362,-3.64337 c 0.148952,-0.58209 0.273662,-1.88131 0.277133,-2.88717 0.0051,-1.4858 -0.11908,-2.04282 -0.662178,-2.96954 -0.818743,-1.39708 -2.4821968,-2.42359 -4.2477238,-2.62125 -1.2783606,-0.14312 -1.2906016,-0.13765 -0.688705,0.30739 0.808351,0.5977 2.013373,2.38253 2.390462,3.54066 0.165892,0.5095 0.475136,2.32509 0.687208,4.03464 0.24405,1.96733 0.601624,3.56969 0.9741378,4.36532 l 0.588553,1.25703 0.205146,-1.98437 c 0.11283,-1.09141 0.327015,-2.46063 0.475967,-3.04271 z m 36.009187,3.74998 c 0.278521,-0.62964 0.636459,-2.32628 0.795416,-3.77031 0.449023,-4.07909 1.109406,-6.00646 2.552466,-7.44952 l 1.210257,-1.21026 -1.290378,0.17636 c -1.696555,0.23188 -3.517936,1.38312 -4.259421,2.69227 -0.714375,1.26128 -0.794994,3.79501 -0.205957,6.47294 0.208058,0.94588 0.382469,2.28533 0.387581,2.97656 0.0051,0.69122 0.07552,1.25677 0.156464,1.25677 0.08094,0 0.37505,-0.51517 0.653572,-1.14481 z M 7.5858942,103.5029 c -0.45354,-1.7358 -0.918476,-3.09799 -1.03319,-3.02709 -0.114714,0.0709 -0.208572,1.14306 -0.208572,2.3826 0,2.13814 0.03965,2.29334 0.773398,3.02709 0.425368,0.42537 0.890304,0.7734 1.03319,0.7734 0.142886,0 -0.111286,-1.4202 -0.564826,-3.156 z m 43.2285908,2.3826 c 0.733745,-0.73375 0.773397,-0.88895 0.773397,-3.02709 0,-1.23954 -0.104813,-2.31848 -0.232919,-2.39765 -0.128105,-0.0792 -0.540409,1.08318 -0.916231,2.58301 -0.375822,1.49983 -0.759997,2.9268 -0.853722,3.17105 -0.268307,0.69919 0.372638,0.52752 1.229475,-0.32932 z M 12.23511,96.6641 C 11.955915,96.12212 11.207515,94.84524 10.572,93.82659 8.6857052,90.803123 8.4573082,88.817203 9.7887612,87.016311 10.102656,86.591746 10.312534,86.19743 10.255158,86.140053 c -0.05738,-0.05738 -0.5525378,0.01944 -1.1003588,0.170698 -1.293556,0.357168 -2.963813,1.878576 -3.3512846,3.052632 -0.700452,2.122387 0.3085716,3.676437 4.2794074,6.590957 1.290645,0.9473 2.356027,1.86813 2.367515,2.04627 0.01556,0.24123 0.05552,0.23776 0.156595,-0.0136 0.07464,-0.18562 -0.09273,-0.78093 -0.371922,-1.32291 z m 35.261254,-0.47416 c 4.983444,-3.30782 6.078087,-6.170007 3.31458,-8.666678 -0.89586,-0.809356 -2.84051,-1.676786 -3.123866,-1.39343 -0.05175,0.05175 0.209441,0.541392 0.580436,1.088083 1.291513,1.903148 0.776901,4.178175 -1.84827,8.170945 -0.487512,0.74148 -0.965605,1.70534 -1.062429,2.1419 -0.174991,0.78901 -0.173446,0.79024 0.258913,0.20626 0.239225,-0.32312 1.085511,-1.01931 1.880636,-1.54708 z M 12.546171,91.67613 c -0.302355,-2.419967 0.8849,-4.502029 1.956268,-3.430661 0.348296,0.348294 0.370425,0.564674 0.124407,1.216454 -0.248438,0.65819 -0.232811,0.7928 0.09204,0.7928 1.656479,0 2.44815,-2.661874 1.142966,-3.843049 -0.653467,-0.59138 -2.449007,-0.797579 -3.424968,-0.393323 -0.438022,0.181435 -1.04973,0.739771 -1.35935,1.240748 -0.743846,1.203568 -0.594167,3.071444 0.427931,5.340251 0.687171,1.52535 0.77958,1.62556 0.985548,1.06878 0.125004,-0.33792 0.149825,-1.23432 0.05516,-1.992 z m 34.268732,-0.0719 c 0.296805,-0.752997 0.539646,-1.914467 0.539646,-2.581037 0,-1.055057 -0.132987,-1.34495 -1.027206,-2.239169 -0.841784,-0.841784 -1.211925,-1.026502 -2.050521,-1.023305 -1.329139,0.0051 -2.259153,0.491436 -2.700747,1.412412 -0.599589,1.250485 0.304893,3.081602 1.522158,3.081602 0.452482,0 0.474436,-0.0841 0.206936,-0.7928 -0.246019,-0.65177 -0.223889,-0.86815 0.124406,-1.216451 1.080412,-1.080411 2.198227,0.982171 1.901328,3.508308 -0.08914,0.75843 -0.08285,1.5854 0.01398,1.83773 0.161346,0.42046 0.20754,0.4138 0.553212,-0.0797 0.207441,-0.29617 0.620006,-1.15457 0.916811,-1.90757 z m -31.98978,-6.941458 c 3.214789,0.05831 4.556585,-0.318783 5.976966,-1.679748 1.255312,-1.2028 1.668998,-2.380512 0.564422,-1.606837 -0.445265,0.311876 -1.296444,0.412506 -3.50573,0.414463 -2.512529,0.0022 -3.105051,0.08983 -4.266932,0.630837 -1.346751,0.627093 -2.487217,1.844339 -2.487217,2.654667 0,0.39098 0.05879,0.389758 0.675048,-0.01403 0.519281,-0.340245 1.221557,-0.432395 3.043443,-0.39935 z m 31.488393,-0.733744 c -0.302542,-0.424882 -1.167955,-1.080414 -1.923138,-1.456738 -1.228406,-0.61214 -1.681943,-0.684225 -4.304949,-0.684225 -2.225367,0 -3.073591,-0.09925 -3.519925,-0.411878 -0.510021,-0.357232 -0.588038,-0.359925 -0.588038,-0.0203 0,0.629044 1.29899,1.995839 2.480678,2.610163 0.874273,0.454509 1.733041,0.596846 4.31988,0.716002 2.133947,0.0983 3.345048,0.266118 3.571875,0.494956 0.606174,0.611549 0.577079,-0.386452 -0.03638,-1.24798 z M 21.126902,80.437309 c 0.777451,-0.271021 1.356813,-0.915572 1.356813,-1.509479 0,-0.507841 -3.222262,0.405972 -3.931134,1.114845 l -0.687047,0.687047 h 1.211275 c 0.666202,0 1.588743,-0.131586 2.050093,-0.292413 z m 18.252532,-0.394634 c -0.457811,-0.457811 -1.228249,-0.799985 -2.309091,-1.025536 -1.533761,-0.320066 -1.622044,-0.311261 -1.622044,0.161769 0,0.808739 1.513016,1.548695 3.168987,1.549825 l 1.449195,9.89e-4 z"
       style="fill:#d6c38d;fill-opacity:1"
       id="path1" />
  </g>
</svg>
