<?xml version="1.0" encoding="UTF-8"?>
<svg width="2560" height="1080" viewBox="0 0 2560 1080" xmlns="http://www.w3.org/2000/svg">
    <defs>
        <linearGradient id="bgGrad" x1="0" y1="0" x2="0" y2="1">
            <stop offset="0%" stop-color="#010216"/>
            <stop offset="100%" stop-color="#061425"/>
        </linearGradient>
        <radialGradient id="planetGrad" cx="50%" cy="50%" r="50%">
            <stop offset="0%" stop-color="#4674d4"/>
            <stop offset="60%" stop-color="#2d4b94"/>
            <stop offset="100%" stop-color="#0c1b3c"/>
        </radialGradient>
        <linearGradient id="shootGrad" x1="0%" y1="0%" x2="100%" y2="0%">
            <stop offset="0%" stop-color="white" stop-opacity="0"/>
            <stop offset="30%" stop-color="white" stop-opacity="0.7"/>
            <stop offset="100%" stop-color="white" stop-opacity="0"/>
        </linearGradient>
        <filter id="glow" x="-50%" y="-50%" width="200%" height="200%">
            <feGaussianBlur stdDeviation="60" result="coloredBlur"/>
            <feMerge>
                <feMergeNode in="coloredBlur"/>
                <feMergeNode in="SourceGraphic"/>
            </feMerge>
        </filter>
        <filter id="trailBlur" x="-20%" y="-20%" width="140%" height="140%">
            <feGaussianBlur stdDeviation="2"/>
        </filter>
    </defs>
    <rect width="100%" height="100%" fill="url(#bgGrad)"/>
    <circle cx="1840" cy="954" r="1.5" fill="white" opacity="0.53"/>
    <circle cx="2086" cy="106" r="2" fill="white" opacity="0.69"/>
    <circle cx="1337" cy="24" r="2" fill="white" opacity="0.74"/>
    <circle cx="1106" cy="117" r="1.5" fill="white" opacity="0.63"/>
    <circle cx="1746" cy="888" r="2" fill="white" opacity="0.86"/>
    <circle cx="1106" cy="117" r="1.5" fill="white" opacity="0.63"/>
    <circle cx="1746" cy="888" r="2" fill="white" opacity="0.86"/>
    <circle cx="50" cy="50" r="1" fill="white" opacity="0.7"/>
    <circle cx="200" cy="150" r="0.8" fill="white" opacity="0.6"/>
    <circle cx="350" cy="80" r="1.2" fill="white" opacity="0.8"/>
    <circle cx="100" cy="250" r="0.9" fill="white" opacity="0.75"/>
    <circle cx="280" cy="300" r="1.1" fill="white" opacity="0.85"/>
    <circle cx="450" cy="180" r="0.7" fill="white" opacity="0.55"/>
    <circle cx="550" cy="280" r="1.3" fill="white" opacity="0.9"/>
    <circle cx="650" cy="50" r="1" fill="white" opacity="0.7"/>
    <circle cx="750" cy="120" r="0.8" fill="white" opacity="0.6"/>
    <circle cx="850" cy="220" r="1.2" fill="white" opacity="0.8"/>
    <circle cx="950" cy="80" r="0.9" fill="white" opacity="0.75"/>
    <circle cx="1050" cy="180" r="1.1" fill="white" opacity="0.85"/>
    <circle cx="1150" cy="30" r="0.7" fill="white" opacity="0.55"/>
    <circle cx="1250" cy="150" r="1.3" fill="white" opacity="0.9"/>
    <circle cx="1350" cy="100" r="1" fill="white" opacity="0.7"/>
    <circle cx="1450" cy="250" r="0.8" fill="white" opacity="0.6"/>
    <circle cx="1550" cy="70" r="1.2" fill="white" opacity="0.8"/>
    <circle cx="1650" cy="190" r="0.9" fill="white" opacity="0.75"/>
    <circle cx="1750" cy="50" r="1.1" fill="white" opacity="0.85"/>
    <circle cx="1850" cy="120" r="0.7" fill="white" opacity="0.55"/>
    <circle cx="1950" cy="280" r="1.3" fill="white" opacity="0.9"/>
    <circle cx="2050" cy="70" r="1" fill="white" opacity="0.7"/>
    <circle cx="2150" cy="180" r="0.8" fill="white" opacity="0.6"/>
    <circle cx="2250" cy="30" r="1.2" fill="white" opacity="0.8"/>
    <circle cx="2350" cy="110" r="0.9" fill="white" opacity="0.75"/>
    <circle cx="2450" cy="210" r="1.1" fill="white" opacity="0.85"/>
    <circle cx="2500" cy="50" r="0.7" fill="white" opacity="0.55"/>
    <circle cx="50" cy="350" r="1.3" fill="white" opacity="0.9"/>
    <circle cx="150" cy="450" r="1" fill="white" opacity="0.7"/>
    <circle cx="300" cy="380" r="0.8" fill="white" opacity="0.6"/>
    <circle cx="480" cy="420" r="1.2" fill="white" opacity="0.8"/>
    <circle cx="600" cy="350" r="0.9" fill="white" opacity="0.75"/>
    <circle cx="720" cy="480" r="1.1" fill="white" opacity="0.85"/>
    <circle cx="850" cy="320" r="0.7" fill="white" opacity="0.55"/>
    <circle cx="980" cy="450" r="1.3" fill="white" opacity="0.9"/>
    <circle cx="1100" cy="380" r="1" fill="white" opacity="0.7"/>
    <circle cx="1220" cy="420" r="0.8" fill="white" opacity="0.6"/>
    <circle cx="1350" cy="350" r="1.2" fill="white" opacity="0.8"/>
    <circle cx="1480" cy="480" r="0.9" fill="white" opacity="0.75"/>
    <circle cx="1600" cy="320" r="1.1" fill="white" opacity="0.85"/>
    <circle cx="1720" cy="450" r="0.7" fill="white" opacity="0.55"/>
    <circle cx="1850" cy="380" r="1.3" fill="white" opacity="0.9"/>
    <circle cx="1980" cy="420" r="1" fill="white" opacity="0.7"/>
    <circle cx="2100" cy="350" r="0.8" fill="white" opacity="0.6"/>
    <circle cx="2220" cy="480" r="1.2" fill="white" opacity="0.8"/>
    <circle cx="2350" cy="320" r="0.9" fill="white" opacity="0.75"/>
    <circle cx="2480" cy="450" r="1.1" fill="white" opacity="0.85"/>
    <circle cx="2530" cy="380" r="0.7" fill="white" opacity="0.55"/>
    <circle cx="100" cy="650" r="1.3" fill="white" opacity="0.9"/>
    <circle cx="250" cy="580" r="1" fill="white" opacity="0.7"/>
    <circle cx="400" cy="620" r="0.8" fill="white" opacity="0.6"/>
    <circle cx="550" cy="550" r="1.2" fill="white" opacity="0.8"/>
    <circle cx="700" cy="680" r="0.9" fill="white" opacity="0.75"/>
    <circle cx="850" cy="520" r="1.1" fill="white" opacity="0.85"/>
    <circle cx="1000" cy="650" r="0.7" fill="white" opacity="0.55"/>
    <circle cx="1150" cy="580" r="1.3" fill="white" opacity="0.9"/>
    <circle cx="1300" cy="620" r="1" fill="white" opacity="0.7"/>
    <circle cx="1450" cy="550" r="0.8" fill="white" opacity="0.6"/>
    <circle cx="1600" cy="680" r="1.2" fill="white" opacity="0.8"/>
    <circle cx="1750" cy="520" r="0.9" fill="white" opacity="0.75"/>
    <circle cx="1900" cy="650" r="1.1" fill="white" opacity="0.85"/>
    <circle cx="2050" cy="580" r="0.7" fill="white" opacity="0.55"/>
    <circle cx="2200" cy="620" r="1.3" fill="white" opacity="0.9"/>
    <circle cx="2350" cy="550" r="1" fill="white" opacity="0.7"/>
    <circle cx="2500" cy="680" r="0.8" fill="white" opacity="0.6"/>
    <circle cx="50" cy="850" r="1.2" fill="white" opacity="0.8"/>
    <circle cx="200" cy="780" r="0.9" fill="white" opacity="0.75"/>
    <circle cx="350" cy="820" r="1.1" fill="white" opacity="0.85"/>
    <circle cx="500" cy="750" r="0.7" fill="white" opacity="0.55"/>
    <circle cx="650" cy="880" r="1.3" fill="white" opacity="0.9"/>
    <circle cx="800" cy="720" r="1" fill="white" opacity="0.7"/>
    <circle cx="950" cy="850" r="0.8" fill="white" opacity="0.6"/>
    <circle cx="1100" cy="780" r="1.2" fill="white" opacity="0.8"/>
    <circle cx="1250" cy="820" r="0.9" fill="white" opacity="0.75"/>
    <circle cx="1400" cy="750" r="1.1" fill="white" opacity="0.85"/>
    <circle cx="1550" cy="880" r="0.7" fill="white" opacity="0.55"/>
    <circle cx="1700" cy="720" r="1.3" fill="white" opacity="0.9"/>
    <circle cx="1850" cy="850" r="1" fill="white" opacity="0.7"/>
    <circle cx="2000" cy="780" r="0.8" fill="white" opacity="0.6"/>
    <circle cx="2150" cy="820" r="1.2" fill="white" opacity="0.8"/>
    <circle cx="2300" cy="750" r="0.9" fill="white" opacity="0.75"/>
    <circle cx="2450" cy="880" r="1.1" fill="white" opacity="0.85"/>
    <circle cx="2550" cy="720" r="0.7" fill="white" opacity="0.55"/>
    <circle cx="150" cy="980" r="1.3" fill="white" opacity="0.9"/>
    <circle cx="300" cy="910" r="1" fill="white" opacity="0.7"/>
    <circle cx="450" cy="950" r="0.8" fill="white" opacity="0.6"/>
    <circle cx="600" cy="880" r="1.2" fill="white" opacity="0.8"/>
    <circle cx="750" cy="1010" r="0.9" fill="white" opacity="0.75"/>
    <circle cx="900" cy="850" r="1.1" fill="white" opacity="0.85"/>
    <circle cx="1050" cy="980" r="0.7" fill="white" opacity="0.55"/>
    <circle cx="1200" cy="910" r="1.3" fill="white" opacity="0.9"/>
    <circle cx="1350" cy="950" r="1" fill="white" opacity="0.7"/>
    <circle cx="1500" cy="880" r="0.8" fill="white" opacity="0.6"/>
    <circle cx="1650" cy="1010" r="1.2" fill="white" opacity="0.8"/>
    <circle cx="1800" cy="850" r="0.9" fill="white" opacity="0.75"/>
    <circle cx="1950" cy="980" r="1.1" fill="white" opacity="0.85"/>
    <circle cx="2100" cy="910" r="0.7" fill="white" opacity="0.55"/>
    <circle cx="2250" cy="950" r="1.3" fill="white" opacity="0.9"/>
    <circle cx="2400" cy="880" r="1" fill="white" opacity="0.7"/>
    <circle cx="2550" cy="1010" r="0.8" fill="white" opacity="0.6"/>
    <circle cx="50" cy="1050" r="1.2" fill="white" opacity="0.8"/>
    <circle cx="200" cy="980" r="0.9" fill="white" opacity="0.75"/>
    <circle cx="350" cy="1020" r="1.1" fill="white" opacity="0.85"/>
    <circle cx="500" cy="950" r="0.7" fill="white" opacity="0.55"/>
    <line x1="2200" y1="150" x2="2400" y2="220" stroke="url(#shootGrad)" stroke-width="3" stroke-linecap="round" filter="url(#trailBlur)"/>
    <line x1="1800" y1="900" x2="1950" y2="950" stroke="url(#shootGrad)" stroke-width="2.5" stroke-linecap="round" filter="url(#trailBlur)"/>
    <line x1="600" y1="200" x2="800" y2="160" stroke="url(#shootGrad)" stroke-width="2.5" stroke-linecap="round" filter="url(#trailBlur)"/>
    <line x1="300" y1="700" x2="500" y2="650" stroke="url(#shootGrad)" stroke-width="2" stroke-linecap="round" filter="url(#trailBlur)"/>
    <line x1="1200" y1="500" x2="1400" y2="470" stroke="url(#shootGrad)" stroke-width="3" stroke-linecap="round" filter="url(#trailBlur)"/>
    <circle cx="1024.0" cy="216.0" r="378.0" fill="#5c3dad" opacity="0.25" filter="url(#glow)"/>
    <circle cx="768.0" cy="540.0" r="453.6000000000001" fill="#833ab4" opacity="0.18" filter="url(#glow)"/>
    <circle cx="1408.0" cy="324.0" r="432.0" fill="#4a2f87" opacity="0.22" filter="url(#glow)"/>
    <circle cx="-300" cy="-200" r="900" fill="url(#planetGrad)"/>
</svg>
